<svg xmlns="http://www.w3.org/2000/svg" width="36.579" height="35.999" viewBox="0 0 36.579 35.999">
  <path id="Tracé_215" data-name="Tracé 215" d="M167.032,115.6a5.5,5.5,0,0,0,.054.636,1.571,1.571,0,0,0,.163.38c.2.383.427.757.2,1.212a.31.31,0,0,0-.016.243,5.172,5.172,0,0,1,.473,2.4c.021.527.033,1.054.038,1.58a5.419,5.419,0,0,1-.057.584,7.7,7.7,0,0,0,2.595,1.3,6.105,6.105,0,0,1,3.512,3.381,20.588,20.588,0,0,1,1.034,2.8,23.6,23.6,0,0,1,.455,2.879c.1.714.114,1.443.271,2.145a12.029,12.029,0,0,0,.63,1.664c.449,1.155.892,2.309,1.35,3.459a.548.548,0,0,0,.259.272,3.425,3.425,0,0,1,2.07,2.68,2.316,2.316,0,0,0,.347.732,13.506,13.506,0,0,1,.816,1.337A.81.81,0,0,1,181,146.4c-.114.078-.127.289-.21.422a2.683,2.683,0,0,1-1.755,1.243,34.1,34.1,0,0,1-4.182.628,27.076,27.076,0,0,1-4.893.188q-2.99-.194-5.981-.31a48.877,48.877,0,0,1-6.664-.784c-1.439-.258-2.875-.53-4.3-.853-1.843-.419-3.686-.85-5.5-1.368a7.906,7.906,0,0,1-2.063-1.036,1.553,1.553,0,0,1-.455-2.159,3.062,3.062,0,0,1,.891-1.226c.1-.08.135-.253.189-.388.308-.762.589-1.536.928-2.283a1.69,1.69,0,0,1,1.169-.9,10.075,10.075,0,0,0,1.05-.356.558.558,0,0,0,.253-.256,18.987,18.987,0,0,1,2.336-3.629,3.608,3.608,0,0,0,.6-1.837,14.607,14.607,0,0,1,1.223-3.923A6.433,6.433,0,0,1,154.9,125.9a10.392,10.392,0,0,1,3.494-2.446c.731-.285,1.479-.528,2.226-.768a1.184,1.184,0,0,0,.6-.455,10.669,10.669,0,0,0,1.36-3.409,11.559,11.559,0,0,1,.489-1.073c.01.023.008.011,0,0a1.11,1.11,0,0,1,.246-1.9c.108-.068.063-.554-.082-.62a.866.866,0,0,1-.662-.789,3.037,3.037,0,0,1-.023-.582c.106-.9.189-.905,1.037-.938a15.006,15.006,0,0,1,2.489.163,4.878,4.878,0,0,1,1.313.4c.572.253.7.54.458,1.1C167.68,114.986,167.593,115.495,167.032,115.6Z" transform="translate(-144.765 -112.916)" fill="#848689" fill-rule="evenodd"/>
</svg>
